<svg xmlns="http://www.w3.org/2000/svg" width="30" height="30" viewBox="0 0 30 30">
  <metadata><?xpacket begin="﻿" id="W5M0MpCehiHzreSzNTczkc9d"?>
<x:xmpmeta xmlns:x="adobe:ns:meta/" x:xmptk="Adobe XMP Core 5.6-c138 79.159824, 2016/09/14-01:09:01        ">
   <rdf:RDF xmlns:rdf="http://www.w3.org/1999/02/22-rdf-syntax-ns#">
      <rdf:Description rdf:about=""/>
   </rdf:RDF>
</x:xmpmeta>
<?xpacket end="w"?></metadata>
<defs>
    <style>
      .cls-1 {
        fill: #008ac9;
        fill-rule: evenodd;
      }
    </style>
  </defs>
  <path class="cls-1" d="M1867.81,1476.85a2.1,2.1,0,0,0-3.18,0q-1.11,1.1-2.22,2.22a0.437,0.437,0,0,1-.61.11c-0.48-.26-0.99-0.47-1.45-0.76a23.11,23.11,0,0,1-5.56-5.06,12.954,12.954,0,0,1-1.99-3.19,0.465,0.465,0,0,1,.11-0.59c0.75-.71,1.47-1.45,2.2-2.19a2.1,2.1,0,0,0-.01-3.25c-0.58-.59-1.16-1.16-1.74-1.75-0.6-.6-1.19-1.2-1.8-1.79a2.1,2.1,0,0,0-3.17,0c-0.75.74-1.47,1.49-2.23,2.22a3.616,3.616,0,0,0-1.14,2.44,10.284,10.284,0,0,0,.8,4.45,27.056,27.056,0,0,0,4.8,8,29.633,29.633,0,0,0,9.84,7.69,14.235,14.235,0,0,0,5.45,1.59,3.992,3.992,0,0,0,3.43-1.31c0.63-.71,1.35-1.36,2.03-2.04a2.121,2.121,0,0,0,.01-3.23Q1869.6,1478.625,1867.81,1476.85Zm-1.19-4.98,2.3-.39a10.349,10.349,0,0,0-8.75-8.49l-0.32,2.32A8,8,0,0,1,1866.62,1471.87Zm3.6-10.01a17.016,17.016,0,0,0-9.74-4.86l-0.33,2.32a14.816,14.816,0,0,1,12.55,12.15l2.3-.39A17.115,17.115,0,0,0,1870.22,1461.86Z" transform="translate(-1845 -1457)"/>
</svg>
