<svg xmlns="http://www.w3.org/2000/svg" width="40" height="30" viewBox="0 0 40 30">
  <metadata><?xpacket begin="﻿" id="W5M0MpCehiHzreSzNTczkc9d"?>
<x:xmpmeta xmlns:x="adobe:ns:meta/" x:xmptk="Adobe XMP Core 5.6-c138 79.159824, 2016/09/14-01:09:01        ">
   <rdf:RDF xmlns:rdf="http://www.w3.org/1999/02/22-rdf-syntax-ns#">
      <rdf:Description rdf:about=""/>
   </rdf:RDF>
</x:xmpmeta>
                                                                                                    
                                                                                                    
                                                                                                    
                                                                                                    
                                                                                                    
                                                                                                    
                                                                                                    
                                                                                                    
                                                                                                    
                                                                                                    
                                                                                                    
                                                                                                    
                                                                                                    
                                                                                                    
                                                                                                    
                                                                                                    
                                                                                                    
                                                                                                    
                                                                                                    
                                                                                                    
                           
<?xpacket end="w"?></metadata>
<defs>
    <style>
      .cls-1 {
        fill-rule: evenodd;
      }
    </style>
  </defs>
  <path id="Фигура_1" data-name="Фигура 1" class="cls-1" d="M2615.08,145.121c1.54-.015,6.48-0.38,7.35.236s1.1,2.95,1.49,4.02h21.43c2.66,0,6.9-.528,8.53.63,0.7,2.256-1.92,11.227-2.58,13.872-0.33,1.324-.3,3.567-1.41,4.1l-23,.079c-1.33-.434-1.61-3.506-2.03-4.887q-2.235-7.486-4.46-14.975c-1.96.05-5.55,0.482-6.18-.867C2613.59,146.286,2614.5,145.494,2615.08,145.121Zm9.78,7.33q1.83,6.3,3.67,12.611l19.48-.079q1.38-6.265,2.74-12.532h-25.89Zm1.4,16.473c4.46-.181,4.7,5.185,1.33,5.99a3.075,3.075,0,0,1-3.44-4.335A3.831,3.831,0,0,1,2626.26,168.924Zm22.69,0c4.36-.172,4.86,4.887,1.65,5.911a3.072,3.072,0,0,1-3.6-4.414A4.355,4.355,0,0,1,2648.95,168.924Z" transform="translate(-2614 -145)"/>
</svg>
