<svg xmlns="http://www.w3.org/2000/svg" width="59" height="59" viewBox="0 0 59 59">
  <metadata><?xpacket begin="﻿" id="W5M0MpCehiHzreSzNTczkc9d"?>
<x:xmpmeta xmlns:x="adobe:ns:meta/" x:xmptk="Adobe XMP Core 5.6-c138 79.159824, 2016/09/14-01:09:01        ">
   <rdf:RDF xmlns:rdf="http://www.w3.org/1999/02/22-rdf-syntax-ns#">
      <rdf:Description rdf:about=""/>
   </rdf:RDF>
</x:xmpmeta>
                                                                                                    
                                                                                                    
                                                                                                    
                                                                                                    
                                                                                                    
                                                                                                    
                                                                                                    
                                                                                                    
                                                                                                    
                                                                                                    
                                                                                                    
                                                                                                    
                                                                                                    
                                                                                                    
                                                                                                    
                                                                                                    
                                                                                                    
                                                                                                    
                                                                                                    
                                                                                                    
                           
<?xpacket end="w"?></metadata>
<defs>
    <style>
      .cls-1 {
        fill: #bbb;
        fill-rule: evenodd;
      }
    </style>
  </defs>
  <path id="Forma_1" data-name="Forma 1" class="cls-1" d="M2609.5,1144.01a29.49,29.49,0,1,0,29.49,29.49A29.524,29.524,0,0,0,2609.5,1144.01Zm13.16,22.74c0.01,0.29.02,0.59,0.02,0.88,0,8.97-6.83,19.31-19.32,19.31a19.159,19.159,0,0,1-10.4-3.05,12.319,12.319,0,0,0,1.61.1,13.648,13.648,0,0,0,8.44-2.91,6.8,6.8,0,0,1-6.35-4.71,6.773,6.773,0,0,0,1.28.12,6.61,6.61,0,0,0,1.79-.24,6.781,6.781,0,0,1-5.45-6.65,0.277,0.277,0,0,1,.01-0.09,6.651,6.651,0,0,0,3.07.85,6.786,6.786,0,0,1-3.02-5.65,6.7,6.7,0,0,1,.92-3.41,19.286,19.286,0,0,0,13.99,7.09,6.578,6.578,0,0,1-.18-1.55,6.8,6.8,0,0,1,11.75-4.64,13.719,13.719,0,0,0,4.31-1.65,6.83,6.83,0,0,1-2.99,3.76,13.642,13.642,0,0,0,3.9-1.07A13.925,13.925,0,0,1,2622.66,1166.75Z" transform="translate(-2580 -1144)"/>
</svg>
