<svg xmlns="http://www.w3.org/2000/svg" width="59" height="59" viewBox="0 0 59 59">
  <metadata><?xpacket begin="﻿" id="W5M0MpCehiHzreSzNTczkc9d"?>
<x:xmpmeta xmlns:x="adobe:ns:meta/" x:xmptk="Adobe XMP Core 5.6-c138 79.159824, 2016/09/14-01:09:01        ">
   <rdf:RDF xmlns:rdf="http://www.w3.org/1999/02/22-rdf-syntax-ns#">
      <rdf:Description rdf:about=""/>
   </rdf:RDF>
</x:xmpmeta>
                                                                                                    
                                                                                                    
                                                                                                    
                                                                                                    
                                                                                                    
                                                                                                    
                                                                                                    
                                                                                                    
                                                                                                    
                                                                                                    
                                                                                                    
                                                                                                    
                                                                                                    
                                                                                                    
                                                                                                    
                                                                                                    
                                                                                                    
                                                                                                    
                                                                                                    
                                                                                                    
                           
<?xpacket end="w"?></metadata>
<defs>
    <style>
      .cls-1 {
        fill: #008ac9;
        fill-rule: evenodd;
      }
    </style>
  </defs>
  <path id="Forma_1" data-name="Forma 1" class="cls-1" d="M2431.5,1203a28.823,28.823,0,0,1-7.85-1.06,30.181,30.181,0,0,1-7.05-2.98,29.471,29.471,0,0,1-10.56-10.56,30.181,30.181,0,0,1-2.98-7.05,29.6,29.6,0,0,1,0-15.7,30,30,0,0,1,2.98-7.05,29.471,29.471,0,0,1,10.56-10.56,30.181,30.181,0,0,1,7.05-2.98,29.507,29.507,0,0,1,19.33,1.27,29.436,29.436,0,0,1,15.69,15.69,29.507,29.507,0,0,1,1.27,19.33,30.181,30.181,0,0,1-2.98,7.05,29.471,29.471,0,0,1-10.56,10.56,30.181,30.181,0,0,1-7.05,2.98A28.823,28.823,0,0,1,2431.5,1203Zm14.22-41.65h-27.97a1.023,1.023,0,0,0-.71.26,0.964,0.964,0,0,0-.29.74v3.13a0.186,0.186,0,0,0,.18.23l14.69,8.38,0.12,0.06a0.235,0.235,0,0,0,.17-0.06l14.22-8.38a0.461,0.461,0,0,1,.18-0.06,0.461,0.461,0,0,0,.18-0.06,0.206,0.206,0,0,0,.23-0.23v-3.01a0.964,0.964,0,0,0-.29-0.74A1.023,1.023,0,0,0,2445.72,1161.35Zm-20.06,12.56a0.235,0.235,0,0,0,.06-0.17q0-.18-0.12-0.18l-8.44-4.84a0.362,0.362,0,0,0-.29,0q-0.12,0-.12.18v12.68a0.235,0.235,0,0,0,.18.24h0.11q0.12,0,.12-0.06Zm10.26,0.95c-0.03-.12-0.13-0.14-0.29-0.06l-3.25,1.89a1.182,1.182,0,0,1-1.23,0l-2.84-1.6a0.2,0.2,0,0,0-.29,0l-10.8,10.03a0.347,0.347,0,0,0-.06.24,0.336,0.336,0,0,0,.12.18,2.283,2.283,0,0,0,.47.11h27.67a0.375,0.375,0,0,0,.24-0.11,0.475,0.475,0,0,0-.06-0.3Zm10.62-6.38h-0.23l-8.03,4.78c-0.07,0-.11.06-0.11,0.18q-0.06.06,0.06,0.18l8.02,8.67a0.336,0.336,0,0,0,.18.12h0.11a0.564,0.564,0,0,0,.18-0.24v-13.45A0.322,0.322,0,0,0,2446.54,1168.48Z" transform="translate(-2402 -1144)"/>
</svg>
