<svg xmlns="http://www.w3.org/2000/svg" width="32" height="32" viewBox="0 0 32 32">
  <metadata><?xpacket begin="﻿" id="W5M0MpCehiHzreSzNTczkc9d"?>
<x:xmpmeta xmlns:x="adobe:ns:meta/" x:xmptk="Adobe XMP Core 5.6-c138 79.159824, 2016/09/14-01:09:01        ">
   <rdf:RDF xmlns:rdf="http://www.w3.org/1999/02/22-rdf-syntax-ns#">
      <rdf:Description rdf:about=""/>
   </rdf:RDF>
</x:xmpmeta>
                                                                                                    
                                                                                                    
                                                                                                    
                                                                                                    
                                                                                                    
                                                                                                    
                                                                                                    
                                                                                                    
                                                                                                    
                                                                                                    
                                                                                                    
                                                                                                    
                                                                                                    
                                                                                                    
                                                                                                    
                                                                                                    
                                                                                                    
                                                                                                    
                                                                                                    
                                                                                                    
                           
<?xpacket end="w"?></metadata>
<defs>
    <style>
      .cls-1 {
        fill: #bbb;
        fill-rule: evenodd;
      }
    </style>
  </defs>
  <path id="Forma_1" data-name="Forma 1" class="cls-1" d="M364,6891H348a8.024,8.024,0,0,0-8,8v16a8.024,8.024,0,0,0,8,8h16a8.024,8.024,0,0,0,8-8v-16A8.024,8.024,0,0,0,364,6891Zm5.333,24a5.336,5.336,0,0,1-5.333,5.33H348a5.337,5.337,0,0,1-5.333-5.33v-16a5.337,5.337,0,0,1,5.333-5.33h16a5.336,5.336,0,0,1,5.333,5.33v16h0Zm-4.665-18.67a2,2,0,1,1-2,2A2,2,0,0,1,364.668,6896.33ZM356,6899a8,8,0,1,0,8,8A8,8,0,0,0,356,6899Zm0,13.33a5.33,5.33,0,1,1,5.333-5.33A5.328,5.328,0,0,1,356,6912.33Z" transform="translate(-340 -6891)"/>
</svg>
