<svg xmlns="http://www.w3.org/2000/svg" width="32.656" height="26.54" viewBox="0 0 32.656 26.54">
  <metadata><?xpacket begin="﻿" id="W5M0MpCehiHzreSzNTczkc9d"?>
<x:xmpmeta xmlns:x="adobe:ns:meta/" x:xmptk="Adobe XMP Core 5.6-c138 79.159824, 2016/09/14-01:09:01        ">
   <rdf:RDF xmlns:rdf="http://www.w3.org/1999/02/22-rdf-syntax-ns#">
      <rdf:Description rdf:about=""/>
   </rdf:RDF>
</x:xmpmeta>
                                                                                                    
                                                                                                    
                                                                                                    
                                                                                                    
                                                                                                    
                                                                                                    
                                                                                                    
                                                                                                    
                                                                                                    
                                                                                                    
                                                                                                    
                                                                                                    
                                                                                                    
                                                                                                    
                                                                                                    
                                                                                                    
                                                                                                    
                                                                                                    
                                                                                                    
                                                                                                    
                           
<?xpacket end="w"?></metadata>
<defs>
    <style>
      .cls-1 {
        fill: #6fbdff;
        fill-rule: evenodd;
      }
    </style>
  </defs>
  <path id="Forma_1" data-name="Forma 1" class="cls-1" d="M254.12,6894.33a13.352,13.352,0,0,1-4.254,1.63,6.7,6.7,0,0,0-11.583,4.58,6.854,6.854,0,0,0,.173,1.53,19.016,19.016,0,0,1-13.8-7,6.62,6.62,0,0,0-.907,3.36,6.7,6.7,0,0,0,2.979,5.58,6.76,6.76,0,0,1-3.033-.84v0.08a6.705,6.705,0,0,0,5.37,6.57,6.822,6.822,0,0,1-1.764.24,7.475,7.475,0,0,1-1.261-.12,6.711,6.711,0,0,0,6.254,4.65,13.4,13.4,0,0,1-8.315,2.86,14.024,14.024,0,0,1-1.6-.09,18.948,18.948,0,0,0,10.263,3.01c12.316,0,19.05-10.21,19.05-19.06l-0.022-.87a13.473,13.473,0,0,0,3.346-3.46,13.732,13.732,0,0,1-3.844,1.06A6.751,6.751,0,0,0,254.12,6894.33Z" transform="translate(-222.375 -6893.84)"/>
</svg>
