<svg xmlns="http://www.w3.org/2000/svg" width="36.968" height="26.54" viewBox="0 0 36.968 26.54">
  <metadata><?xpacket begin="﻿" id="W5M0MpCehiHzreSzNTczkc9d"?>
<x:xmpmeta xmlns:x="adobe:ns:meta/" x:xmptk="Adobe XMP Core 5.6-c138 79.159824, 2016/09/14-01:09:01        ">
   <rdf:RDF xmlns:rdf="http://www.w3.org/1999/02/22-rdf-syntax-ns#">
      <rdf:Description rdf:about=""/>
   </rdf:RDF>
</x:xmpmeta>
                                                                                                    
                                                                                                    
                                                                                                    
                                                                                                    
                                                                                                    
                                                                                                    
                                                                                                    
                                                                                                    
                                                                                                    
                                                                                                    
                                                                                                    
                                                                                                    
                                                                                                    
                                                                                                    
                                                                                                    
                                                                                                    
                                                                                                    
                                                                                                    
                                                                                                    
                                                                                                    
                           
<?xpacket end="w"?></metadata>
<defs>
    <style>
      .cls-1 {
        fill: #bbb;
        fill-rule: evenodd;
      }
    </style>
  </defs>
  <path id="Forma_1" data-name="Forma 1" class="cls-1" d="M443.406,6898.1a4.737,4.737,0,0,0-4-3.74,120.655,120.655,0,0,0-13.848-.52,120.7,120.7,0,0,0-13.85.52,4.737,4.737,0,0,0-4,3.74,62.776,62.776,0,0,0-.007,18,4.724,4.724,0,0,0,4,3.74,120.677,120.677,0,0,0,13.849.53,120.659,120.659,0,0,0,13.848-.53,4.727,4.727,0,0,0,4-3.74A63.356,63.356,0,0,0,443.406,6898.1Zm-22.625,14.91v-12.59c3.92,2.11,7.814,4.2,11.758,6.32C428.607,6908.84,424.711,6910.91,420.781,6913.01Z" transform="translate(-407.063 -6893.84)"/>
</svg>
